<?xml version="1.0" encoding="UTF-8"?>
<svg width="133px" height="159px" viewBox="0 0 133 159" version="1.1" xmlns="http://www.w3.org/2000/svg" xmlns:xlink="http://www.w3.org/1999/xlink">
    <!-- Generator: Sketch 57.1 (83088) - https://sketch.com -->
    <title>WWBT Greean</title>
    <desc>Created with Sketch.</desc>
    <defs>
        <polygon id="path-1" points="0 0.4715 26.66412 0.4715 26.66412 19.8265 0 19.8265"></polygon>
        <polygon id="path-3" points="0.683298462 0.309989474 18.0674215 0.309989474 18.0674215 20.6315789 0.683298462 20.6315789"></polygon>
        <polygon id="path-5" points="0.266584615 0.305347368 18.5083385 0.305347368 18.5083385 20.6315789 0.266584615 20.6315789"></polygon>
        <polygon id="path-7" points="0.229925926 0.622410526 19.8192593 0.622410526 19.8192593 28 0.229925926 28"></polygon>
        <polygon id="path-9" points="0.425363611 0.798294737 12.8646556 0.798294737 12.8646556 27.8205053 0.425363611 27.8205053"></polygon>
    </defs>
    <g id="Page-1" stroke="none" stroke-width="1" fill="none" fill-rule="evenodd">
        <g id="Main" transform="translate(-100.000000, -4263.000000)">
            <g id="Footer" transform="translate(0.000000, 4188.000000)">
                <g id="Footer-11">
                    <g id="WWBT-Greean" transform="translate(100.000000, 75.000000)">
                        <path d="M62.3405006,86.128973 C56.0575487,84.4952841 53.7662332,99.0164161 61.8463903,93.9037573 C69.9217031,88.7960192 66.2304083,87.1426474 62.3405006,86.128973" id="Fill-1" fill="#65C651"></path>
                        <path d="M101.668101,59.8765823 L100.522101,57.0025823 C100.312101,56.4805823 99.7061007,56.2225823 99.1781007,56.4325823 L98.2241007,56.8165823 C97.6961007,57.0265823 97.4381007,57.6265823 97.6541007,58.1485823 L98.8001007,61.0225823 C98.9381007,61.3705823 99.2501007,61.5865823 99.6041007,61.6405823 L98.8961007,59.8765823 L100.804101,59.1085823 L101.512101,60.8785823 C101.728101,60.5965823 101.806101,60.2245823 101.668101,59.8765823" id="Fill-3" fill="#65C651"></path>
                        <path d="M69.5363427,46.8043956 C68.5463427,46.4803956 67.3523427,46.7523956 66.8663427,47.4123956 C66.3803427,48.0723956 66.7883427,48.8723956 67.7783427,49.1963956 C68.7683427,49.5203956 69.9623427,49.2443956 70.4483427,48.5843956 C70.9343427,47.9243956 70.5263427,47.1283956 69.5363427,46.8043956" id="Fill-5" fill="#65C651"></path>
                        <path d="M58.2905675,85.5723691 L58.9985675,85.1823691 C59.5745675,84.4443691 59.8325675,83.4063691 59.5445675,82.3023691 C55.4885675,81.4983691 53.8745675,86.8863691 58.2905675,85.5723691" id="Fill-7" fill="#65C651"></path>
                        <path d="M51.5392725,56.2079041 C50.5432725,55.7219041 49.3492725,56.1299041 48.8632725,57.1199041 C48.3772725,58.1099041 48.7852725,59.3099041 49.7812725,59.7959041 C50.7652725,60.2759041 51.9652725,59.8679041 52.4512725,58.8779041 C52.9372725,57.8879041 52.5292725,56.6939041 51.5392725,56.2079041" id="Fill-9" fill="#65C651"></path>
                        <path d="M62.3195203,80.2527712 C63.0883707,79.4607712 64.2498255,77.0067712 63.3010314,75.1587712 C61.1580655,75.0807712 57.7500409,77.5767712 57.6573427,79.9647712 C59.1350621,80.4687712 60.9563105,81.4947712 62.3195203,80.2527712" id="Fill-11" fill="#65C651"></path>
                        <path d="M72.2905014,85.5738337 L73.0045014,85.1778337 C73.5745014,84.4458337 73.8325014,83.4018337 73.5445014,82.3038337 C69.4885014,81.4938337 67.8745014,86.8818337 72.2905014,85.5738337" id="Fill-13" fill="#65C651"></path>
                        <polygon id="Fill-15" fill="#65C651" points="102.697343 51.207 103.249343 51.891 104.617343 50.793 104.065343 50.109"></polygon>
                        <polygon id="Fill-17" fill="#65C651" points="61.2853427 9.678 60.2353427 10.128 61.1353427 12.228 62.0353427 14.322 63.0793427 13.872"></polygon>
                        <path d="M25.7783427,42.7934759 C26.7683427,43.2794759 27.9623427,42.8714759 28.4483427,41.8814759 C28.9343427,40.8914759 28.5263427,39.6914759 27.5363427,39.2054759 C26.5463427,38.7194759 25.3523427,39.1334759 24.8663427,40.1174759 C24.3803427,41.1074759 24.7883427,42.3074759 25.7783427,42.7934759" id="Fill-19" fill="#65C651"></path>
                        <path d="M21.8357016,87.1740876 C22.2925576,86.1675485 23.47807,85.7279107 24.4843099,86.1849026 C25.4905497,86.6361098 25.9300568,87.8219749 25.4732008,88.8285141 C25.0163447,89.8350532 23.8366153,90.2804758 22.8303754,89.8234838 C21.8241356,89.3607072 21.3788456,88.1806268 21.8357016,87.1740876 M22.0034082,91.6398821 C24.0101049,92.5538659 26.3811298,91.6688056 27.2948418,89.6557273 C28.2143369,87.6484337 27.3237568,85.2767034 25.3112771,84.3627196 C23.3045804,83.442951 20.9277725,84.3337961 20.0198435,86.3410897 C19.1003485,88.354168 19.9909285,90.7258983 22.0034082,91.6398821" id="Fill-21" fill="#65C651"></path>
                        <path d="M59.0037704,17.6738312 C59.5631449,17.4268136 60.0519677,17.0484036 60.4400023,16.5648798 C60.8028398,16.1023787 61.0699285,15.5557865 61.211032,14.9724045 C61.2916626,14.551949 61.3420567,14.4678579 62.6573427,13.8739645 L61.1455197,10.1949788 L60.2636229,10.5891558 L59.8251942,10.7836165 L59.4119626,10.5365989 C58.9029822,10.2265129 58.3284895,10.0478193 57.7539967,10.0110295 C57.1442281,9.96372824 56.5495778,10.0688421 55.9851638,10.3211154 C55.0427942,10.7468266 54.3171191,11.5246693 53.9391634,12.5127398 C53.5511288,13.5060659 53.5662471,14.5887389 53.9693999,15.5715536 C54.3725526,16.5543684 55.1183853,17.3111883 56.0708338,17.710621 C57.0182429,18.1100538 58.0614008,18.0942867 59.0037704,17.6738312" id="Fill-23" fill="#65C651"></path>
                        <polygon id="Fill-25" fill="#65C651" points="57.6573427 35.6748971 69.1155775 38 70.6573427 30.3251029 59.1991078 28"></polygon>
                        <path d="M101.430539,66.9336722 L100.722539,65.1696722 C100.512539,65.4456722 100.428539,65.8176722 100.566539,66.1716722 L101.718539,69.0336722 C101.928539,69.5616722 102.528539,69.8196722 103.056539,69.6096722 L104.172539,69.1656722 C104.694539,68.9496722 104.952539,68.3496722 104.742539,67.8216722 L103.596539,64.9536722 C103.434539,64.5456722 103.026539,64.3056722 102.600539,64.3176722 L103.344539,66.1716722 L101.430539,66.9336722 Z" id="Fill-27" fill="#65C651"></path>
                        <polygon id="Fill-29" fill="#65C651" points="63.0103427 9.828 64.8043427 14.028 65.8543427 13.578 66.3043427 14.622 64.0603427 9.378"></polygon>
                        <path d="M115.358343,77.385 L111.938343,77.469 C111.614343,77.475 111.368343,77.739 111.374343,78.051 C111.386343,78.375 111.650343,78.621 111.962343,78.615 L115.382343,78.525 C115.700343,78.519 115.946343,78.261 115.940343,77.943 C115.934343,77.625 115.670343,77.379 115.358343,77.385" id="Fill-31" fill="#65C651"></path>
                        <path d="M113.678443,65.887998 C114.170443,65.875998 114.554443,65.467998 114.548443,64.975998 C114.530443,64.489998 114.122443,64.099998 113.636443,64.111998 C113.144443,64.123998 112.754443,64.525998 112.766443,65.017998 C112.778443,65.515998 113.186443,65.899998 113.678443,65.887998" id="Fill-33" fill="#65C651"></path>
                        <path d="M109.085669,53.4887312 L108.216999,52.4419866 L109.298115,51.6018364 L110.162064,52.648581 L109.085669,53.4887312 Z M106.923437,50.8718698 L107.999832,50.0363105 L108.86378,51.0784641 L107.787386,51.9186144 L106.923437,50.8718698 Z M105.629875,49.3017529 L106.70627,48.4616027 L107.570218,49.5083472 L106.493823,50.3484975 L105.629875,49.3017529 Z M108.316141,47.2036728 L109.18481,48.2504174 L108.103695,49.0905676 L107.244467,48.043823 L108.316141,47.2036728 Z M110.478373,49.8205342 L109.401978,50.6606845 L108.538029,49.6139399 L109.614424,48.7737896 L110.478373,49.8205342 Z M111.229016,47.5112688 L112.092965,48.5580134 L111.01657,49.3981636 L110.152622,48.351419 L111.229016,47.5112688 Z M113.391248,50.1281302 L112.310132,50.9682805 L111.446184,49.9215359 L112.522579,49.0813856 L113.391248,50.1281302 Z M114.68481,51.6982471 L113.608416,52.5383973 L112.744467,51.4916528 L113.820862,50.6515025 L114.68481,51.6982471 Z M111.993823,53.7963272 L111.129875,52.7541736 L112.20627,51.9140234 L113.070218,52.956177 L111.993823,53.7963272 Z M109.836313,51.1840568 L110.907986,50.3393155 L111.771935,51.3860601 L110.69554,52.2308013 L109.836313,51.1840568 Z M115.657343,51.7992487 L110.039317,45 L104.657343,49.2007513 L110.275368,56 L115.657343,51.7992487 Z" id="Fill-35" fill="#65C651"></path>
                        <path d="M117.357883,79.8889409 L110.624898,80.0568004 C109.573501,80.0822336 108.683857,79.232763 108.658583,78.169653 L108.375515,66.5619166 C108.350241,65.4988066 109.194391,64.6086428 110.250843,64.5832095 L116.978773,64.41535 C118.035225,64.3899168 118.919814,65.2343008 118.945088,66.3024974 L119.233211,77.9051472 C119.258485,78.9682572 118.40928,79.8635077 117.357883,79.8889409 L117.357883,79.8889409 Z M106.485022,57.9756505 L105.100009,56.2411027 L106.252502,55.305159 L103.937406,52.4108548 L102.784913,53.3417119 L101.3999,51.5969907 L102.547338,50.6712203 L101.627366,49.5063774 L109.689761,42.9954647 L116.624938,51.6885504 L108.562542,58.2045498 L107.637515,57.0447934 L106.485022,57.9756505 Z M103.816091,69.1815416 L102.8759,69.5630404 C101.7689,70.005579 100.500147,69.4613073 100.055325,68.3422442 L99.0898595,65.9108253 C98.7006404,64.9341884 99.0696403,63.8354719 99.9137908,63.2759403 L99.8784073,63.1945539 C98.8876678,63.3725867 97.8716543,62.8334017 97.4773804,61.8567648 L96.5119149,59.4253459 C96.0670931,58.3062828 96.6130108,57.0346201 97.7200105,56.5869949 L98.5287774,56.2614493 C99.640832,55.8189107 100.90453,56.3631823 101.344297,57.4822454 L102.314818,59.9136643 C102.704037,60.8903012 102.335037,61.9890177 101.490886,62.5485493 L101.51616,62.6146758 C102.552393,62.3552566 103.649283,62.8893549 104.058721,63.9117716 L105.024187,66.3431906 C105.463954,67.4622537 104.928146,68.739003 103.816091,69.1815416 L103.816091,69.1815416 Z M99.0999691,81.8066082 L98.6096541,82.4983926 L89.7435466,83.220697 L87.605369,74.5377846 L88.1007387,73.8460001 L91.7856831,68.6830498 L93.1858609,74.7412506 L88.2928209,74.5632178 L90.4057245,82.2949266 L98.3619693,81.852388 L96.6382847,77.238796 L102.789968,76.6487445 L99.0999691,81.8066082 Z M102.436133,75.8247071 L96.0317095,76.4401919 L94.136162,75.0617096 L92.6803815,68.7593496 L102.436133,75.8247071 Z M88.7325879,21.4484131 C87.8277799,22.0079447 86.5337528,21.5399728 85.8412461,20.4005631 C85.7502598,20.2581369 85.6794927,20.1157107 85.6188352,19.9681978 L80.0181241,23.4271202 L78.3803711,24.4444503 L71.7080438,17.2112332 L72.5269204,16.7076548 L73.3457969,16.1989898 L80.7207404,11.6413509 L80.73085,11.6616975 C81.6255484,11.2547655 82.8033153,11.7227373 83.4503288,12.7909339 C84.1478903,13.9303436 83.9760273,15.3088259 83.0712193,15.8632708 C82.1664113,16.4228024 80.8673294,15.9548305 80.1748227,14.8154208 C80.0888913,14.6729946 80.0181241,14.5305684 79.9574666,14.3830555 L74.6802623,17.6435985 L78.6836587,21.9825114 L86.382109,17.2264932 L86.3972734,17.2468398 C87.286917,16.8399077 88.4646839,17.3078796 89.1167522,18.3709895 C89.8092589,19.5103993 89.6424507,20.8888815 88.7325879,21.4484131 L88.7325879,21.4484131 Z M70.4948934,39.439896 L55.4164448,36.3777324 L57.7012114,24.9988952 L62.4072241,25.9551855 L62.5993062,25.0039818 L60.7138683,24.622483 L60.9059504,23.676366 L70.3280853,25.5889466 L70.1410579,26.5401503 L68.25562,26.1586515 L68.0635378,27.1047685 L72.7746053,28.0610588 L70.4948934,39.439896 Z M52.2521442,15.9395706 C51.7315005,14.7136878 51.7517196,13.386072 52.2117058,12.236489 C52.6666372,11.086906 53.5613357,10.1153558 54.7795409,9.5863441 C55.5023763,9.27605842 56.2605953,9.15906545 56.9985952,9.20993196 C57.7315402,9.26079846 58.4392113,9.47952444 59.0710604,9.84576327 C59.0761152,9.84067662 59.4501699,9.68299046 59.9556493,9.46426448 C60.2286081,9.34727152 60.5318957,9.21501861 60.8402381,9.0827657 L63.4889498,7.94335598 L64.3785935,7.56185719 L64.757703,8.45202103 L65.6422918,8.07052224 L67.1486202,11.6311776 L66.2690862,12.0075897 L66.6431409,12.8977536 L65.7636069,13.2792524 L64.879018,13.6607512 L64.7627578,13.706531 L63.1098403,14.4186621 C62.9986349,14.4695286 62.8924842,14.5153084 62.7812788,14.566175 C62.018005,14.8917206 61.3406627,15.1816597 61.3406627,15.1867463 C61.1637449,15.8988774 60.8351833,16.5652286 60.3650875,17.1400201 C59.8949918,17.7046383 59.2884165,18.1726102 58.5655811,18.4828959 C57.3423211,19.0068209 56.02302,18.9864743 54.8856915,18.5286757 C53.7433082,18.0657905 52.7778427,17.1654534 52.2521442,15.9395706 L52.2521442,15.9395706 Z M48.6986244,38.9363176 C49.6944187,40.6759521 49.8763913,42.7614788 48.9918025,44.577413 C47.5056932,47.6243167 43.6084475,48.7586397 40.2773387,47.1156516 C36.9563395,45.4726635 35.4601206,41.6729356 36.9462299,38.6311186 C38.4323391,35.5842149 42.3346396,34.4498918 45.6556388,36.0928799 C45.8982689,36.2149596 46.1307894,36.3522991 46.3532003,36.4947253 L51.448432,36.398079 L48.6986244,38.9363176 Z M37.456764,53.3671451 L35.7886822,55.0813463 L35.35397,52.2379087 L34.9192577,49.3944711 L37.016997,50.5237075 L39.119791,51.6529439 L37.456764,53.3671451 Z M25.4263558,56.7039878 L25.2797668,55.7578709 L33.7617101,54.445515 L33.615121,53.4943114 L25.1331778,54.8066672 L24.8450546,52.9093466 L33.321943,51.5969907 L33.1804088,50.6457871 L24.6984655,51.9632296 L24.5569313,51.0171126 L33.9740114,49.5521572 L34.8434358,55.2441191 L25.4263558,56.7039878 Z M22.6411646,57.0549667 L22.6411646,57.0295335 C22.6007263,57.0397068 22.5703975,57.06514 22.5299592,57.0702267 C22.0345894,57.1465264 21.5594389,56.7853743 21.4785622,56.2614493 L20.8972609,52.4718946 C20.8163842,51.9479696 21.1601102,51.4596512 21.6605347,51.3833514 C21.7009731,51.3782648 21.7363566,51.3884381 21.776795,51.3884381 L21.7717402,51.3680915 L23.5813562,51.083239 L24.4507807,56.775201 L22.6411646,57.0549667 Z M21.3016444,38.0665003 C22.1457949,36.3319525 28.9091084,32.1252925 30.7086149,30.8587166 C30.8097107,33.0612362 31.6386968,41.0218443 30.7945463,42.7563921 C29.1011906,46.2305744 25.8307393,45.6913895 23.930137,44.7554458 C22.0295347,43.8195021 19.6032338,41.5406827 21.3016444,38.0665003 L21.3016444,38.0665003 Z M35.2832029,23.0863146 C36.2840519,22.104591 37.8864214,22.119851 38.8670514,23.1270078 C39.26638,23.5390265 39.4938457,24.0527782 39.559558,24.5817898 L44.649735,26.2603845 L43.0726394,21.0465677 C42.5772697,20.955008 42.0920095,20.7159354 41.7129,20.3242633 C40.7322701,19.3171065 40.7474345,17.7046383 41.7482836,16.7178281 C42.7491327,15.7310179 44.3565569,15.7513645 45.3321321,16.7534347 C46.312762,17.7605915 46.2925428,19.3781463 45.2967485,20.3598699 C45.2563102,20.4005631 45.210817,20.4259964 45.1703787,20.4616029 L46.6868167,25.482127 C47.2782275,25.5279068 47.854474,25.772066 48.3043506,26.2298646 C49.2849805,27.2370214 49.2647613,28.8494896 48.2639122,29.8362998 C47.2681179,30.82311 45.6606936,30.8027634 44.6851185,29.7956066 C44.280735,29.3835879 44.0583241,28.8698362 43.987557,28.3408246 L38.8872705,26.6622299 C38.8670514,26.6825765 38.851887,26.7080097 38.8316678,26.7283563 C37.8308187,27.7151665 36.2233944,27.6999066 35.2478193,26.6927498 C34.2671894,25.6906796 34.2823538,24.0731248 35.2832029,23.0863146 L35.2832029,23.0863146 Z M18.6478779,68.5558836 C18.4659053,68.8102161 18.2485492,69.0187688 18.0160287,69.2069748 L17.6065905,66.6331297 L15.7110429,65.7938323 L14.169331,67.1875746 L14.5787692,69.7563331 C14.3007556,69.6495134 14.0379063,69.5172605 13.7851667,69.3392277 C12.2282903,68.199818 11.8795096,66.0125583 13.0067285,64.4458699 C13.1735367,64.211884 13.3757284,64.0135046 13.5829749,63.8354719 C13.5779201,63.8151253 13.5678106,63.7947787 13.5678106,63.7744321 L12.1524684,54.8982269 C11.9856602,53.8503769 12.5821258,52.8686534 13.4768243,52.7262271 C14.3715227,52.5787143 15.2409472,53.3213653 15.4077553,54.3743019 L16.8079331,63.1538607 C17.176933,63.2606804 17.5358233,63.4234532 17.8694397,63.6625258 C19.4263161,64.7968488 19.7750968,66.9841085 18.6478779,68.5558836 L18.6478779,68.5558836 Z M30.3193958,91.3389912 L30.0767657,91.8730895 C24.4811094,95.7542039 17.0606728,92.3563213 16.2923442,85.5656429 L16.5349743,85.0315446 C22.1255757,81.1555169 29.5460124,84.5483128 30.3193958,91.3389912 L30.3193958,91.3389912 Z M14.92755,37.9851139 C-2.06666532,65.2495607 7.30997637,103.903018 41.394448,115.97364 C56.8166226,121.431616 68.5841815,118.96459 80.5690966,112.891129 C75.9793442,114.142446 71.2227837,114.768104 66.42073,114.717237 C61.3356079,114.661284 56.2049926,113.842333 51.1956924,112.214605 C48.8401587,111.446521 46.5048441,110.510577 44.2150227,109.381341 C40.2722839,107.433153 30.5316971,105.174681 32.4373542,96.8529204 C33.4988608,92.2393284 41.4904891,90.469174 44.5334747,91.4915907 C39.2259417,87.6969495 41.738174,82.8544582 30.9360806,80.5145989 C29.0961358,80.265353 26.1036981,79.8126412 23.6369589,79.0191237 C23.1769727,79.2988895 22.6361099,79.4718356 22.0548086,79.4718356 C20.3715624,79.4718356 19.0017134,78.0984399 19.0017134,76.3994987 C19.0017134,74.7005574 20.3715624,73.3271617 22.0548086,73.3271617 C23.4600412,73.3271617 24.6276984,74.283452 24.9865888,75.5754613 C27.2713554,76.073953 29.4600809,75.9569601 29.702711,72.6557239 C29.7684233,71.7248668 28.2519853,70.3056913 26.9023555,68.7949561 C25.3909722,68.6169234 24.2132054,67.3350874 24.2132054,65.7582258 C24.2132054,64.0643711 25.5779996,62.6858889 27.2663006,62.6858889 C28.9495468,62.6858889 30.3193958,64.0643711 30.3193958,65.7582258 C30.3193958,66.002385 30.2840122,66.2312843 30.2334643,66.4601835 C31.1332175,68.2812044 32.1997789,70.092052 34.1155456,69.9445391 C36.3952574,69.7614197 35.6926411,66.1244646 35.5157234,64.3492236 C34.9192577,63.789692 34.5502578,63.0012612 34.5502578,62.116184 C34.5502578,60.4223294 35.915052,59.0438471 37.603353,59.0438471 C39.2865992,59.0438471 40.6564482,60.4223294 40.6564482,62.116184 C40.6564482,62.9910879 40.2874483,63.7744321 39.7061471,64.3339636 L39.7061471,64.3390503 C39.7415306,66.4296636 38.5738733,71.0890355 41.0810508,72.2335319 C42.1273931,72.7065904 42.8906669,72.1470588 43.5629544,71.2925015 C43.4466941,70.9669559 43.375927,70.6210637 43.375927,70.2548248 C43.375927,68.5558836 44.7407212,67.1824879 46.4290222,67.1824879 C48.1122684,67.1824879 49.4821174,68.5558836 49.4821174,70.2548248 C49.4821174,71.9486795 48.1122684,73.3271617 46.4290222,73.3271617 L46.4239674,73.3271617 C45.3927896,73.657794 44.7306117,73.774787 43.2445024,77.879714 C43.7600913,79.1818965 45.8072826,79.9143742 47.0052687,80.1381868 C49.0575148,80.5196856 50.422309,78.8054843 51.352391,77.8491941 C54.4459245,74.6547775 53.4450754,68.8356493 50.7053774,65.0257481 C47.803926,63.8965117 45.5090498,60.7224418 45.7466251,57.5381985 C45.8881593,55.610358 46.8283509,53.8096837 48.1628164,52.4413747 C50.1442954,50.4016279 49.3254188,50.2185084 50.3363775,47.6904431 C51.4433772,44.9334785 55.0070066,42.9954647 58.5099784,43.6414693 C61.9472379,44.2773006 64.1157442,42.7258722 67.6591544,43.5600829 C71.3087152,44.4248135 73.1638243,47.0851317 73.269975,50.7170002 C73.3609613,53.8961568 76.5505359,55.3356789 78.0568643,57.9400439 C79.6996722,53.2348922 84.5573286,52.2226487 86.7207801,48.0973752 C87.8884374,45.6608696 83.1167125,45.6710429 79.3104531,45.0555582 C78.7847546,45.4777502 78.1276314,45.742256 77.404796,45.742256 C75.716495,45.742256 74.3517008,44.3688603 74.3517008,42.6699191 C74.3517008,40.9760644 75.716495,39.5975822 77.404796,39.5975822 C78.5926724,39.5975822 79.6086859,40.28428 80.1141652,41.2812635 C82.0956442,41.9069215 84.1883287,42.3291135 85.4621366,40.2181535 C86.382109,37.852861 84.0467945,35.9962336 81.95411,34.3125523 C81.7974114,34.3328989 81.6508224,34.3532455 81.489069,34.3532455 C79.8058228,34.3532455 78.4359738,32.9798498 78.4359738,31.2809086 C78.4359738,29.5870539 79.8058228,28.2085716 81.489069,28.2085716 C83.17737,28.2085716 84.547219,29.5870539 84.547219,31.2809086 C84.547219,31.3317751 84.5320546,31.3775549 84.5320546,31.4233348 C86.382109,33.1731426 88.3029305,35.2027161 89.9305739,34.7703508 C91.4621763,34.3583321 91.0122997,31.5199811 90.9213134,28.8952695 C90.3096834,28.3306513 89.9255191,27.5371338 89.9255191,26.6418833 C89.9255191,24.942942 91.2953681,23.5695464 92.9786143,23.5695464 C94.6669153,23.5695464 96.0317095,24.942942 96.0317095,26.6418833 C96.0317095,27.5880003 95.5969973,28.4272976 94.9247098,28.9919158 C94.4394496,31.8048336 93.8733128,35.0755498 96.4209286,36.382819 C98.0283529,37.0644302 99.2465581,35.9199338 100.141257,34.5617981 C100.100818,34.3685054 100.080599,34.1650394 100.080599,33.9564867 C100.080599,32.2575455 101.445393,30.8841498 103.133694,30.8841498 C104.81694,30.8841498 106.186789,32.2575455 106.186789,33.9564867 C106.186789,35.655428 104.81694,37.0288236 103.133694,37.0288236 L103.128639,37.0288236 C101.925599,37.8630343 100.449599,38.7277649 99.3678731,41.0981441 C97.7705584,44.6130196 96.3501615,48.1991082 95.0814084,51.8157167 C93.8025457,55.4526718 92.2557789,58.8200345 89.7182726,61.7448585 C86.9634102,64.9189284 83.6980137,66.0227316 84.4916163,70.2853447 C85.9221228,78.0119669 85.8412461,85.0671511 84.8201778,92.7734267 C89.5767384,87.646083 95.4908466,86.3337271 102.37042,85.5961628 C106.156461,85.1841441 112.672089,82.1525004 112.672089,87.3154507 C112.439569,90.1029352 110.746213,92.9667194 108.309803,95.7135107 C111.661131,93.5974641 115.164102,91.4559842 118.89454,89.3399376 C147.656314,73.0067028 79.3155079,-65.3044115 14.92755,37.9851139 L14.92755,37.9851139 Z" id="Fill-37" fill="#65C651"></path>
                        <polygon id="Fill-39" fill="#65C651" points="106.700343 57.207 107.246343 57.891 108.614343 56.793 108.068343 56.109"></polygon>
                        <polygon id="Fill-41" fill="#65C651" points="111.657343 67.1706308 111.930202 77 119.657343 76.8293692 119.384483 67"></polygon>
                        <path d="M94.4573427,106.261 C94.5493427,106.171 94.6453427,106.093 94.7373427,106.009 C94.7813427,105.907 94.8213427,105.817 94.8573427,105.739 C94.7213427,105.913 94.5893427,106.087 94.4573427,106.261" id="Fill-43" fill="#65C651"></path>
                        <g id="Group-47" transform="translate(0.657343, 139.000000)">
                            <mask id="mask-2" fill="white">
                                <use xlink:href="#path-1"></use>
                            </mask>
                            <g id="Clip-46"></g>
                            <path d="M19.6506,14.925 L24.2514,0.86 C24.435,0.26 24.759,0 25.4124,0 C26.1576,0 26.6652,0.385 26.6652,1.12 C26.6652,1.335 26.622,1.42 26.5734,1.59 L20.952,18.58 C20.7684,19.055 20.439,19.355 19.7478,19.355 C19.0944,19.355 18.7218,19.01 18.5382,18.54 L13.338,4.645 L8.1324,18.54 C7.9488,19.01 7.5762,19.355 6.9228,19.355 C6.2262,19.355 5.9022,19.055 5.7132,18.58 L0.0918,1.59 C0.0486,1.42 0,1.335 0,1.12 C0,0.385 0.513,0 1.2528,0 C1.9062,0 2.2302,0.26 2.4192,0.86 L7.0146,14.925 L12.2202,0.82 C12.4038,0.305 12.7764,0 13.338,0 C13.8942,0 14.2614,0.305 14.4504,0.82 L19.6506,14.925 Z" id="Fill-45" fill="#65C651" mask="url(#mask-2)"></path>
                        </g>
                        <g id="Group-50" transform="translate(25.657343, 138.000000)">
                            <mask id="mask-4" fill="white">
                                <use xlink:href="#path-3"></use>
                            </mask>
                            <g id="Clip-49"></g>
                            <path d="M9.73840615,2.48146316 C5.93431385,2.48146316 3.67185231,5.81346316 3.35616,9.26925263 L15.66816,9.26925263 C15.3472062,5.81346316 13.3583446,2.48146316 9.73840615,2.48146316 M18.0674215,10.3833579 C18.0674215,10.9610421 17.7043754,11.4458842 16.9361908,11.4458842 L3.35616,11.4458842 C3.58240615,15.1750421 5.39237538,18.4554632 10.0120062,18.4554632 C12.45336,18.4554632 13.9949908,17.3052526 15.3051138,15.6186211 C15.53136,15.3039895 15.8470523,15.0409368 16.2995446,15.0409368 C17.1150831,15.0409368 17.4781292,15.6186211 17.4781292,16.1498842 C17.4781292,16.4593579 17.2992369,16.7275684 17.1150831,16.9906211 C15.66816,18.9454632 13.4530523,20.6320947 10.0120062,20.6320947 C3.58240615,20.6320947 0.683298462,15.7475684 0.683298462,10.4710421 C0.683298462,4.83862105 4.30323692,0.309989474 9.69105231,0.309989474 C14.7631754,0.309989474 18.0674215,4.61683158 18.0674215,10.3833579" id="Fill-48" fill="#65C651" mask="url(#mask-4)"></path>
                        </g>
                        <path d="M64.0298292,150.733402 L66.8518479,140.999483 C67.3141215,139.44433 68.0989114,139 69.1632156,139 C70.5016588,139 71.6573427,139.754327 71.6573427,141.262981 C71.6573427,141.490313 71.6143405,141.75381 71.5229608,142.063808 L66.5239562,157.444846 C66.2014398,158.374839 65.5994092,159 64.2125885,159 C62.965525,159 62.3204922,158.421338 61.9495983,157.403513 L58.154655,146.910101 L54.365087,157.403513 C53.9941931,158.421338 53.3491603,159 52.0967215,159 C50.7099009,159 50.1078702,158.374839 49.7907291,157.444846 L44.7917245,142.063808 C44.7003448,141.75381 44.6573427,141.490313 44.6573427,141.262981 C44.6573427,139.754327 45.8076512,139 47.1514697,139 C48.2157739,139 49.0005638,139.44433 49.4628374,140.999483 L52.2848561,150.733402 L55.9830444,140.508654 C56.3539383,139.532162 57.0473486,139 58.154655,139 C59.2673367,139 59.960747,139.532162 60.3316409,140.508654 L64.0298292,150.733402 Z" id="Fill-51" fill="#65C651"></path>
                        <g id="Group-55" transform="translate(71.657343, 138.000000)">
                            <mask id="mask-6" fill="white">
                                <use xlink:href="#path-5"></use>
                            </mask>
                            <g id="Clip-54"></g>
                            <path d="M9.77418462,4.3904 C7.55381538,4.3904 6.28578462,6.2524 5.83329231,8.47545263 L13.4835692,8.47545263 C13.2099692,6.11829474 11.8998462,4.3904 9.77418462,4.3904 M18.5083385,10.4715579 C18.5083385,11.3587158 17.9664,12.2458737 16.5194769,12.2458737 L5.7912,12.2458737 C5.88064615,14.3760842 7.23812308,16.5475579 10.1793231,16.5475579 C11.8998462,16.5475579 13.0310769,15.9750316 13.9360615,15.2168211 C14.5727077,14.6855579 15.0672923,14.2832421 15.9249231,14.2832421 C17.1982154,14.2832421 17.9664,15.1291368 17.9664,16.1504 C17.9664,17.1716632 17.2876615,17.8782947 16.4721231,18.5488211 C15.0252,19.6990316 12.8469231,20.6326105 9.99516923,20.6326105 C3.52873846,20.6326105 0.266584615,15.9750316 0.266584615,10.4715579 C0.266584615,4.74629474 4.07067692,0.305347368 9.81627692,0.305347368 C15.2935385,0.305347368 18.5083385,4.74629474 18.5083385,10.4715579" id="Fill-53" fill="#65C651" mask="url(#mask-6)"></path>
                        </g>
                        <g id="Group-58" transform="translate(90.657343, 131.000000)">
                            <mask id="mask-8" fill="white">
                                <use xlink:href="#path-7"></use>
                            </mask>
                            <g id="Clip-57"></g>
                            <path d="M10.8379259,12.1142 C7.99525926,12.1142 6.48059259,14.7756737 6.48059259,17.8394632 C6.48059259,20.9032526 7.99525926,23.5647263 10.8379259,23.5647263 C13.6805926,23.5647263 15.2859259,21.1250421 15.2859259,17.8394632 C15.2859259,14.5538842 13.6805926,12.1142 10.8379259,12.1142 M11.1952593,28.0005158 C8.53392593,28.0005158 6.42192593,26.6233579 5.45659259,24.7149368 L5.45659259,25.2926211 C5.45659259,26.6697789 4.40059259,27.8199895 2.84325926,27.8199895 C1.23792593,27.8199895 0.229925926,26.6233579 0.229925926,25.2049368 L0.229925926,3.24262105 C0.229925926,1.81904211 1.37659259,0.622410526 2.93392593,0.622410526 C4.49659259,0.622410526 5.64325926,1.81904211 5.64325926,3.24262105 L5.64325926,10.7370421 C6.60859259,9.09683158 8.76325926,7.67841053 11.1952593,7.67841053 C16.6992593,7.67841053 19.8192593,12.4700947 19.8192593,17.8394632 C19.8192593,23.2088316 16.6992593,28.0005158 11.1952593,28.0005158" id="Fill-56" fill="#65C651" mask="url(#mask-8)"></path>
                        </g>
                        <path d="M116.657343,159 C115.833462,159 115.164805,158.426512 115.164805,157.719894 L115.164805,140.453821 C115.164805,139.752323 115.833462,139.178836 116.657343,139.178836 C117.481223,139.178836 118.14391,139.752323 118.14391,140.453821 L118.14391,157.719894 C118.14391,158.426512 117.481223,159 116.657343,159 M116.657343,132 C117.785701,132 118.657343,132.747582 118.657343,133.715342 C118.657343,134.683103 117.785701,135.435805 116.657343,135.435805 C115.528984,135.435805 114.657343,134.683103 114.657343,133.715342 C114.657343,132.747582 115.528984,132 116.657343,132" id="Fill-59" fill="#65C651"></path>
                        <g id="Group-63" transform="translate(119.657343, 131.000000)">
                            <mask id="mask-10" fill="white">
                                <use xlink:href="#path-9"></use>
                            </mask>
                            <g id="Clip-62"></g>
                            <path d="M6.3328525,0.798294737 C7.04546917,0.798294737 7.62382472,1.37597895 7.62382472,2.08776842 L7.62382472,8.21018947 L11.7962469,8.21018947 C12.3746025,8.21018947 12.8651719,8.70018947 12.8651719,9.27787368 C12.8651719,9.8504 12.3746025,10.3404 11.7962469,10.3404 L7.62382472,10.3404 L7.62382472,26.5361895 C7.62382472,27.2428211 7.04546917,27.8205053 6.3328525,27.8205053 C5.57892472,27.8205053 5.04188028,27.2428211 5.04188028,26.5361895 L5.04188028,10.3404 L1.49428861,10.3404 C0.910769167,10.3404 0.425363611,9.8504 0.425363611,9.27787368 C0.425363611,8.70018947 0.910769167,8.21018947 1.49428861,8.21018947 L5.04188028,8.21018947 L5.04188028,2.08776842 C5.04188028,1.37597895 5.62023583,0.798294737 6.3328525,0.798294737" id="Fill-61" fill="#65C651" mask="url(#mask-10)"></path>
                        </g>
                    </g>
                </g>
            </g>
        </g>
    </g>
</svg>